<svg width="268" height="77" xmlns="http://www.w3.org/2000/svg"><g fill="none"><path d="M.16 71.3A5.67 5.67 0 0 1 6 65.5a5.75 5.75 0 0 1 4.4 1.72L8.81 69A4.13 4.13 0 0 0 6 67.76a3.31 3.31 0 0 0-3.24 3.48A3.31 3.31 0 0 0 6 74.77a4.06 4.06 0 0 0 2.93-1.3L10.45 75a5.7 5.7 0 0 1-4.57 2 5.63 5.63 0 0 1-5.72-5.7zm15.42 0a5.77 5.77 0 0 1 5.94-5.77 5.71 5.71 0 0 1 5.92 5.74A5.78 5.78 0 0 1 21.49 77a5.72 5.72 0 0 1-5.91-5.7zm9.29 0a3.39 3.39 0 0 0-3.38-3.51 3.34 3.34 0 0 0-3.34 3.48 3.38 3.38 0 0 0 3.37 3.5 3.33 3.33 0 0 0 3.35-3.47zm8.73-5.61h2.46v8.92h5.56v2.23h-8l-.02-11.15zm12.72 5.61a5.93 5.93 0 0 1 11.85 0 5.93 5.93 0 0 1-11.85 0zm9.29 0a3.39 3.39 0 0 0-3.38-3.51 3.34 3.34 0 0 0-3.35 3.48 3.39 3.39 0 0 0 3.38 3.5 3.33 3.33 0 0 0 3.35-3.47zm8.73-5.61h5.1a4.45 4.45 0 0 1 3.25 1.13 3.51 3.51 0 0 1 1 2.55 3.48 3.48 0 0 1-2.39 3.46l2.72 4h-2.91l-2.39-3.57h-1.93v3.57h-2.45V65.69zm4.94 5.42c1.2 0 1.88-.64 1.88-1.58 0-1-.73-1.6-1.93-1.6h-2.44v3.21l2.49-.03zm19.44-5.42h2.45v11.15h-2.45V65.69zm8.46 9.53l1.45-1.74a5.14 5.14 0 0 0 3.37 1.36c1 0 1.61-.4 1.61-1.06 0-.62-.38-.94-2.24-1.42-2.25-.57-3.7-1.19-3.7-3.41 0-2 1.62-3.36 3.9-3.36a6.48 6.48 0 0 1 4.11 1.41l-1.28 1.8a5.2 5.2 0 0 0-2.9-1.1c-.94 0-1.43.43-1.43 1 0 .73.47 1 2.4 1.47 2.27.59 3.54 1.4 3.54 3.34 0 2.21-1.69 3.45-4.1 3.45a7.13 7.13 0 0 1-4.73-1.74zM123.49 68h-3.39v-2.31h9.24V68h-3.4v8.89h-2.45V68zm11.71-2.26h2.46v4.36h4.52v-4.41h2.46v11.15h-2.46v-4.47h-4.52v4.47h-2.46v-11.1zm16.1 0h8.41v2.18h-6v2.27H159v2.18h-5.26v2.34h6.06v2.18h-8.5V65.74zm27.25-.08h2.26l4.78 11.23H183l-1-2.5h-4.71l-1 2.5h-2.51l4.77-11.23zm2.58 6.57l-1.49-3.62-1.48 3.62h2.97zm10.16-6.49h2.27l5.22 6.87v-6.92h2.43v11.15h-2.09l-5.4-7.09v7.09h-2.43v-11.1zm15.81 9.53l1.45-1.74a5.12 5.12 0 0 0 3.33 1.36c1 0 1.61-.4 1.61-1.06 0-.62-.38-.94-2.25-1.42-2.24-.57-3.69-1.19-3.69-3.41 0-2 1.62-3.36 3.9-3.36a6.43 6.43 0 0 1 4.14 1.36l-1.27 1.85a5.2 5.2 0 0 0-2.9-1.1c-.94 0-1.44.43-1.44 1 0 .73.48 1 2.41 1.47 2.26.59 3.54 1.4 3.54 3.34 0 2.21-1.69 3.45-4.1 3.45a7.11 7.11 0 0 1-4.73-1.79v.05zm13.69-9.53h2.63l2.31 7.55 2.5-7.58h2.11l2.5 7.58 2.31-7.55h2.56l-3.8 11.23h-2.14l-2.52-7.29-2.52 7.29h-2.13l-3.81-11.23zm22.72 0h8.42v2.18h-6v2.27h5.26v2.18H246v2.34h6v2.18h-8.5l.01-11.15zm14.66 0h5.1a4.45 4.45 0 0 1 3.25 1.13 3.47 3.47 0 0 1 1 2.55 3.47 3.47 0 0 1-2.39 3.46l2.72 4H265l-2.39-3.57h-1.93v3.57h-2.46l-.05-11.14zm4.94 5.42c1.2 0 1.88-.64 1.88-1.58 0-1-.73-1.6-1.92-1.6h-2.44v3.21l2.48-.03z" fill="#050001"/><path d="M59.84 21.7C59.84 11.37 68.92.91 79.37.91c10.45 0 19.48 10.46 19.48 20.79 0 11.46-7.08 22.91-19.48 22.91S59.84 33.16 59.84 21.7zm29.8-6.64a19.81 19.81 0 0 0-.94-6.26c-1.25-3.82-3.82-6.32-9.33-6.32S71.11 5 70 8.8a22 22 0 0 0-1 6.26v13.65a28.52 28.52 0 0 0 .69 7c1.13 4.32 3.76 7.33 9.64 7.33 5.88 0 8.52-3 9.65-7.33a28.57 28.57 0 0 0 .62-7l.04-13.65zm26.36 8.6a3.92 3.92 0 1 1-3.92-3.92 3.8 3.8 0 0 1 3.92 3.92zm5.45-21.81h20.21c8 0 17.47 1.63 17.47 11.52 0 8.77-9.14 11.33-16.34 11.33h-7.14v17.41h6.64v1.56h-20.85v-1.56h6.19V3.42h-6.19l.01-1.57zM143 23.14c6.07 0 7.32-4.7 7.32-9.83 0-4.51-.31-9.89-7.32-9.89h-7.33v19.72H143zm30.87.52a3.93 3.93 0 1 1-3.93-3.92 3.8 3.8 0 0 1 3.9 3.92h.03zm21.94 18.45H202v1.56h-20.43v-1.56h6.19V3.42h-6.19V1.85H202v1.57h-6.2l.01 38.69z" fill="#000001"/></g></svg>